<svg width="166" height="41" viewBox="0 0 166 41" fill="none" xmlns="http://www.w3.org/2000/svg">
<path d="M17.5573 24.2866H16.3333L18.1528 16.2048H24.5045C26.7541 16.4435 27.3179 17.7453 27.3826 19.1033C27.3164 20.5014 26.6879 21.8313 24.1737 21.8313H23.3797L24.2729 24.5253M20.4355 17.6711L19.1122 24.2866M20.7332 16.1365L21.1633 13.8518H24.1737C27.945 14.0564 29.59 16.0001 29.6652 19.1033C29.7314 21.8313 27.4818 24.2184 24.703 24.2866H19.1122M19.1122 24.2866L18.4836 27.1851H25.1661L24.6699 25.5606" stroke="#496E4C" stroke-miterlimit="2.61313"/>
<path d="M24.4815 2L43 20.5185L24.4815 39.037M21.5185 2L3 20.5185L21.5185 39.037" stroke="#496E4C" stroke-width="3"/>
<path d="M38.5555 20.5186L23 4.96301L9.66666 18.2963M7.44444 20.5186L23 36.0741L36.3333 22.7408" stroke="#496E4C"/>
<rect x="6.73243" y="20.5176" width="1.00266" height="1.32318" transform="rotate(-45 6.73243 20.5176)" fill="#496E4C"/>
<rect x="38.0205" y="20.6885" width="0.999893" height="0.758206" transform="rotate(-45 38.0205 20.6885)" fill="#496E4C"/>
<path d="M58.016 15.408C57.92 15.072 57.8 14.816 57.656 14.64C57.512 14.448 57.328 14.32 57.104 14.256C56.896 14.176 56.632 14.136 56.312 14.136H56V12.864H64.016V14.136H63.464C62.984 14.136 62.624 14.232 62.384 14.424C62.144 14.6 62.024 14.888 62.024 15.288C62.024 15.368 62.032 15.488 62.048 15.648C62.08 15.792 62.112 15.952 62.144 16.128C62.192 16.288 62.232 16.44 62.264 16.584L63.872 22.128C64 22.528 64.128 22.976 64.256 23.472C64.384 23.952 64.496 24.432 64.592 24.912C64.704 25.376 64.776 25.784 64.808 26.136C64.92 25.624 65.04 25.144 65.168 24.696C65.296 24.232 65.432 23.768 65.576 23.304L68.744 13.032H70.496L73.808 22.2C74 22.696 74.168 23.2 74.312 23.712C74.472 24.224 74.608 24.696 74.72 25.128C74.848 25.544 74.936 25.896 74.984 26.184C75.064 25.8 75.152 25.36 75.248 24.864C75.36 24.368 75.472 23.856 75.584 23.328C75.696 22.784 75.816 22.256 75.944 21.744L77.216 16.56C77.264 16.368 77.312 16.136 77.36 15.864C77.408 15.592 77.432 15.392 77.432 15.264C77.432 14.848 77.304 14.56 77.048 14.4C76.808 14.224 76.424 14.136 75.896 14.136H75.344V12.864H81.608V14.136H81.152C80.848 14.136 80.584 14.184 80.36 14.28C80.136 14.36 79.944 14.536 79.784 14.808C79.624 15.08 79.472 15.48 79.328 16.008L75.608 30H72.872L68.84 18.744L65.384 30H62.408L58.016 15.408ZM87.5315 30.24C85.4995 30.24 83.9555 29.664 82.8995 28.512C81.8435 27.344 81.3155 25.72 81.3155 23.64C81.3155 21.384 81.8355 19.688 82.8755 18.552C83.9155 17.4 85.3795 16.824 87.2675 16.824C89.0115 16.824 90.3795 17.312 91.3715 18.288C92.3795 19.264 92.8835 20.704 92.8835 22.608V23.832H85.0115C85.0435 24.904 85.1875 25.784 85.4435 26.472C85.6995 27.144 86.0595 27.64 86.5235 27.96C87.0035 28.28 87.5715 28.44 88.2275 28.44C88.7875 28.44 89.2835 28.36 89.7155 28.2C90.1635 28.024 90.5475 27.792 90.8675 27.504C91.1875 27.2 91.4355 26.864 91.6115 26.496C91.8355 26.608 91.9955 26.768 92.0915 26.976C92.2035 27.168 92.2595 27.4 92.2595 27.672C92.2595 28.12 92.0915 28.544 91.7555 28.944C91.4195 29.328 90.8995 29.64 90.1955 29.88C89.5075 30.12 88.6195 30.24 87.5315 30.24ZM89.2115 22.296C89.2115 21.48 89.1475 20.784 89.0195 20.208C88.8915 19.616 88.6915 19.168 88.4195 18.864C88.1475 18.544 87.7795 18.384 87.3155 18.384C86.8675 18.384 86.4755 18.536 86.1395 18.84C85.8195 19.128 85.5635 19.568 85.3715 20.16C85.1955 20.736 85.0915 21.448 85.0595 22.296H89.2115ZM103.426 30.24C102.498 30.24 101.738 30.048 101.146 29.664C100.57 29.264 100.106 28.752 99.7544 28.128H99.5384L98.8664 30H94.3064V28.728H94.4744C94.7784 28.728 95.0664 28.688 95.3384 28.608C95.6264 28.528 95.8584 28.368 96.0344 28.128C96.2104 27.888 96.2984 27.528 96.2984 27.048V14.64C96.2984 14.176 96.2104 13.832 96.0344 13.608C95.8584 13.384 95.6264 13.232 95.3384 13.152C95.0664 13.072 94.7544 13.032 94.4024 13.032H94.3064V11.76H99.9464V15.864C99.9464 16.104 99.9384 16.408 99.9224 16.776C99.9064 17.128 99.8824 17.488 99.8504 17.856C99.8184 18.224 99.7864 18.528 99.7544 18.768H99.9224C100.274 18.176 100.73 17.712 101.29 17.376C101.866 17.024 102.61 16.848 103.522 16.848C105.09 16.848 106.282 17.384 107.098 18.456C107.93 19.512 108.346 21.2 108.346 23.52C108.346 25.072 108.154 26.344 107.77 27.336C107.402 28.328 106.85 29.064 106.114 29.544C105.394 30.008 104.498 30.24 103.426 30.24ZM102.418 28.44C102.946 28.44 103.37 28.248 103.69 27.864C104.026 27.48 104.266 26.92 104.41 26.184C104.57 25.448 104.65 24.552 104.65 23.496C104.65 22.408 104.57 21.504 104.41 20.784C104.266 20.064 104.026 19.528 103.69 19.176C103.37 18.808 102.938 18.624 102.394 18.624C101.45 18.624 100.802 19.024 100.45 19.824C100.114 20.624 99.9464 21.856 99.9464 23.52C99.9464 24.576 100.018 25.472 100.162 26.208C100.306 26.928 100.554 27.48 100.906 27.864C101.274 28.248 101.778 28.44 102.418 28.44ZM119.108 30.24C117.252 30.24 115.708 29.872 114.476 29.136C113.244 28.4 112.324 27.376 111.716 26.064C111.108 24.736 110.804 23.184 110.804 21.408C110.804 19.68 111.116 18.16 111.74 16.848C112.364 15.52 113.292 14.488 114.524 13.752C115.756 13 117.276 12.624 119.084 12.624C120.316 12.624 121.332 12.752 122.132 13.008C122.948 13.248 123.556 13.576 123.956 13.992C124.356 14.408 124.556 14.88 124.556 15.408C124.556 16 124.3 16.496 123.788 16.896C123.276 17.296 122.532 17.496 121.556 17.496C121.556 16.968 121.476 16.448 121.316 15.936C121.156 15.424 120.884 15 120.5 14.664C120.116 14.328 119.588 14.16 118.916 14.16C117.908 14.16 117.1 14.448 116.492 15.024C115.9 15.584 115.476 16.4 115.22 17.472C114.964 18.544 114.836 19.856 114.836 21.408C114.836 22.944 114.988 24.224 115.292 25.248C115.612 26.272 116.124 27.04 116.828 27.552C117.548 28.064 118.5 28.32 119.684 28.32C120.468 28.32 121.14 28.208 121.7 27.984C122.26 27.744 122.732 27.448 123.116 27.096C123.516 26.744 123.852 26.392 124.124 26.04C124.252 26.136 124.348 26.28 124.412 26.472C124.492 26.664 124.532 26.864 124.532 27.072C124.532 27.408 124.436 27.76 124.244 28.128C124.068 28.496 123.772 28.84 123.356 29.16C122.94 29.48 122.38 29.744 121.676 29.952C120.988 30.144 120.132 30.24 119.108 30.24ZM125.996 30V28.728H126.044C126.412 28.728 126.732 28.688 127.004 28.608C127.292 28.528 127.516 28.376 127.676 28.152C127.852 27.912 127.94 27.552 127.94 27.072L127.916 14.496C127.916 14.064 127.82 13.744 127.628 13.536C127.436 13.328 127.204 13.192 126.932 13.128C126.676 13.064 126.436 13.032 126.212 13.032H125.924V11.76H131.564V15.72C131.564 16.136 131.548 16.584 131.516 17.064C131.484 17.528 131.452 17.928 131.42 18.264C131.388 18.6 131.372 18.768 131.372 18.768H131.588C131.908 18.16 132.252 17.72 132.62 17.448C133.004 17.176 133.412 17.008 133.844 16.944C134.292 16.864 134.764 16.824 135.26 16.824C136.492 16.824 137.46 17.192 138.164 17.928C138.868 18.664 139.22 19.84 139.22 21.456V27.024C139.22 27.52 139.276 27.888 139.388 28.128C139.516 28.368 139.7 28.528 139.94 28.608C140.18 28.688 140.476 28.728 140.828 28.728H140.9V30H135.572V22.104C135.572 21.064 135.428 20.264 135.14 19.704C134.852 19.144 134.356 18.864 133.652 18.864C133.124 18.864 132.708 19.04 132.404 19.392C132.1 19.728 131.884 20.184 131.756 20.76C131.628 21.32 131.564 21.928 131.564 22.584L131.588 27.168C131.588 27.616 131.652 27.952 131.78 28.176C131.924 28.4 132.124 28.552 132.38 28.632C132.636 28.696 132.94 28.728 133.292 28.728H133.364V30H125.996ZM146.371 30.24C145.667 30.24 145.027 30.104 144.451 29.832C143.891 29.544 143.443 29.112 143.107 28.536C142.771 27.944 142.603 27.208 142.603 26.328C142.603 25.032 143.051 24.072 143.947 23.448C144.843 22.824 146.187 22.48 147.979 22.416L149.947 22.344V21.024C149.947 20.48 149.915 20.008 149.851 19.608C149.787 19.192 149.651 18.872 149.443 18.648C149.235 18.408 148.907 18.288 148.459 18.288C148.059 18.288 147.739 18.4 147.499 18.624C147.259 18.848 147.091 19.16 146.995 19.56C146.899 19.944 146.851 20.384 146.851 20.88C145.779 20.88 144.971 20.76 144.427 20.52C143.883 20.28 143.611 19.864 143.611 19.272C143.611 18.68 143.835 18.208 144.283 17.856C144.731 17.504 145.331 17.248 146.083 17.088C146.835 16.912 147.659 16.824 148.555 16.824C150.235 16.824 151.491 17.128 152.323 17.736C153.171 18.344 153.595 19.4 153.595 20.904V27.024C153.595 27.456 153.635 27.8 153.715 28.056C153.811 28.296 153.963 28.472 154.171 28.584C154.395 28.68 154.683 28.728 155.035 28.728H155.131V30H150.667L150.163 28.344H149.947C149.595 28.776 149.259 29.136 148.939 29.424C148.635 29.696 148.283 29.896 147.883 30.024C147.483 30.168 146.979 30.24 146.371 30.24ZM147.691 28.488C148.155 28.488 148.555 28.368 148.891 28.128C149.227 27.872 149.483 27.512 149.659 27.048C149.851 26.584 149.947 26.04 149.947 25.416V23.616L148.867 23.688C148.227 23.72 147.723 23.848 147.355 24.072C146.987 24.28 146.723 24.584 146.563 24.984C146.403 25.368 146.323 25.848 146.323 26.424C146.323 26.872 146.371 27.256 146.467 27.576C146.563 27.88 146.715 28.112 146.923 28.272C147.131 28.416 147.387 28.488 147.691 28.488ZM161.723 30.24C160.651 30.24 159.795 29.96 159.155 29.4C158.515 28.84 158.195 27.856 158.195 26.448V18.768H156.395V17.544C156.907 17.544 157.363 17.44 157.763 17.232C158.179 17.024 158.507 16.792 158.747 16.536C158.987 16.28 159.203 15.96 159.395 15.576C159.587 15.176 159.739 14.704 159.851 14.16H161.843V17.136H164.915V18.768H161.843V26.208C161.843 26.928 161.963 27.456 162.203 27.792C162.459 28.128 162.867 28.296 163.427 28.296C163.747 28.296 164.043 28.28 164.315 28.248C164.603 28.2 164.875 28.144 165.131 28.08V29.64C164.875 29.752 164.451 29.88 163.859 30.024C163.283 30.168 162.571 30.24 161.723 30.24Z" fill="#496E4C"/>
</svg>
